<svg xmlns="http://www.w3.org/2000/svg" xmlns:xlink="http://www.w3.org/1999/xlink" width="100%" height="100%" preserveAspectRatio="xMidYMid meet" viewBox="0 0 405 161"><title>A3387C94-BEA0-413C-8D50-AEFB2EA03949</title><metadata><id>A3387C94-BEA0-413C-8D50-AEFB2EA03949</id><createdAt>0</createdAt></metadata><style>.line{fill:none;stroke:#000;stroke-linecap:round;stroke-linejoin:round}</style><polyline stroke-width="10" points="8 149 25 139" class="line"/><polyline stroke-width="5" points="25 139 34 133" class="line"/><polyline stroke-width="3" points="34 133 44 126" class="line"/><polyline stroke-width="2" points="44 126 55 119" class="line"/><polyline stroke-width="1" points="55 119 66 111 76 102 87 93 96 84 106 74 114 65 122 55 127 47 133 38" class="line"/><polyline stroke-width="2" points="133 38 136 32" class="line"/><polyline stroke-width="3" points="136 32 139 25 140 20" class="line"/><polyline stroke-width="5" points="140 20 141 16" class="line"/><polyline stroke-width="6" points="141 16 140 13" class="line"/><polyline stroke-width="7" points="140 13 140 10" class="line"/><polyline stroke-width="8" points="140 10 138 9 136 7" class="line"/><polyline stroke-width="9" points="136 7 132 8" class="line"/><polyline stroke-width="8" points="132 8 129 8 125 11" class="line"/><polyline stroke-width="7" points="125 11 121 14" class="line"/><polyline stroke-width="6" points="121 14 116 21" class="line"/><polyline stroke-width="5" points="116 21 112 28" class="line"/><polyline stroke-width="4" points="112 28 108 38" class="line"/><polyline stroke-width="3" points="108 38 104 48" class="line"/><polyline stroke-width="2" points="104 48 100 61" class="line"/><polyline stroke-width="1" points="100 61 97 73 94 84 91 96 89 106 87 116 84 124" class="line"/><polyline stroke-width="2" points="84 124 82 132" class="line"/><polyline stroke-width="3" points="82 132 80 139" class="line"/><polyline stroke-width="4" points="80 139 78 145" class="line"/><polyline stroke-width="5" points="78 145 77 149" class="line"/><polyline stroke-width="6" points="77 149 76 153" class="line"/><polyline stroke-width="7" points="76 153 76 153" class="line"/><polyline stroke-width="8" points="76 153 76 154" class="line"/><polyline stroke-width="9" points="76 154 77 151" class="line"/><polyline stroke-width="8" points="77 151 79 149 82 143" class="line"/><polyline stroke-width="7" points="82 143 85 138" class="line"/><polyline stroke-width="6" points="85 138 88 132" class="line"/><polyline stroke-width="5" points="88 132 92 125 96 120 100 115 103 111 106 107" class="line"/><polyline stroke-width="6" points="106 107 109 104" class="line"/><polyline stroke-width="7" points="109 104 112 102 114 101" class="line"/><polyline stroke-width="8" points="114 101 116 99" class="line"/><polyline stroke-width="9" points="116 99 117 99 119 98" class="line"/><polyline stroke-width="10" points="119 98 120 98 121 99 122 101 122 103" class="line"/><polyline stroke-width="9" points="122 103 122 107" class="line"/><polyline stroke-width="8" points="122 107 123 111" class="line"/><polyline stroke-width="7" points="123 111 123 116 123 121 123 126" class="line"/><polyline stroke-width="6" points="123 126 123 132 124 136" class="line"/><polyline stroke-width="7" points="124 136 125 141 126 144 127 148 129 151" class="line"/><polyline stroke-width="8" points="129 151 131 153 134 154 137 156 140 155 144 155" class="line"/><polyline stroke-width="7" points="144 155 149 153 153 151 158 147" class="line"/><polyline stroke-width="6" points="158 147 162 143" class="line"/><polyline stroke-width="5" points="162 143 167 138 171 133 174 128 178 123 180 119" class="line"/><polyline stroke-width="6" points="180 119 182 114 183 111" class="line"/><polyline stroke-width="7" points="183 111 184 108" class="line"/><polyline stroke-width="8" points="184 108 184 105 185 103" class="line"/><polyline stroke-width="9" points="185 103 184 102 184 100" class="line"/><polyline stroke-width="10" points="184 100 182 101" class="line"/><polyline stroke-width="9" points="182 101 181 102 178 105" class="line"/><polyline stroke-width="8" points="178 105 176 108" class="line"/><polyline stroke-width="7" points="176 108 173 113 171 119" class="line"/><polyline stroke-width="6" points="171 119 170 124 168 130" class="line"/><polyline stroke-width="5" points="168 130 168 135" class="line"/><polyline stroke-width="6" points="168 135 167 140" class="line"/><polyline stroke-width="7" points="167 140 167 143 167 147" class="line"/><polyline stroke-width="8" points="167 147 169 149 170 152 174 153 177 153" class="line"/><polyline stroke-width="7" points="177 153 183 151 189 149" class="line"/><polyline stroke-width="5" points="189 149 195 144" class="line"/><polyline stroke-width="4" points="195 144 202 139" class="line"/><polyline stroke-width="3" points="202 139 209 131 216 123" class="line"/><polyline stroke-width="2" points="216 123 223 114" class="line"/><polyline stroke-width="1" points="223 114 230 104 236 95 241 85 245 76" class="line"/><polyline stroke-width="2" points="245 76 250 68 252 61" class="line"/><polyline stroke-width="3" points="252 61 255 53 256 48" class="line"/><polyline stroke-width="5" points="256 48 257 43" class="line"/><polyline stroke-width="6" points="257 43 258 40" class="line"/><polyline stroke-width="7" points="258 40 258 36 258 34" class="line"/><polyline stroke-width="8" points="258 34 258 33" class="line"/><polyline stroke-width="9" points="258 33 256 33 254 34 251 38" class="line"/><polyline stroke-width="7" points="251 38 248 42 243 49" class="line"/><polyline stroke-width="5" points="243 49 239 56" class="line"/><polyline stroke-width="4" points="239 56 235 65" class="line"/><polyline stroke-width="3" points="235 65 232 74" class="line"/><polyline stroke-width="2" points="232 74 228 84 225 93 223 103 220 113" class="line"/><polyline stroke-width="1" points="220 113 219 122" class="line"/><polyline stroke-width="2" points="219 122 217 130" class="line"/><polyline stroke-width="3" points="217 130 217 137 216 144" class="line"/><polyline stroke-width="5" points="216 144 217 148 218 152" class="line"/><polyline stroke-width="7" points="218 152 222 154 225 156 231 154" class="line"/><polyline stroke-width="6" points="231 154 236 153" class="line"/><polyline stroke-width="5" points="236 153 244 147" class="line"/><polyline stroke-width="4" points="244 147 251 142" class="line"/><polyline stroke-width="3" points="251 142 258 133" class="line"/><polyline stroke-width="2" points="258 133 265 125" class="line"/><polyline stroke-width="1" points="265 125 273 114 280 104 287 93 293 82 298 72 304 62 307 54" class="line"/><polyline stroke-width="2" points="307 54 310 46" class="line"/><polyline stroke-width="3" points="310 46 312 42" class="line"/><polyline stroke-width="5" points="312 42 313 37" class="line"/><polyline stroke-width="6" points="313 37 313 35" class="line"/><polyline stroke-width="7" points="313 35 313 33" class="line"/><polyline stroke-width="9" points="313 33 312 32 310 32 307 34" class="line"/><polyline stroke-width="8" points="307 34 305 37" class="line"/><polyline stroke-width="7" points="305 37 300 42" class="line"/><polyline stroke-width="6" points="300 42 296 48" class="line"/><polyline stroke-width="5" points="296 48 292 56" class="line"/><polyline stroke-width="4" points="292 56 288 64" class="line"/><polyline stroke-width="3" points="288 64 284 73 281 82" class="line"/><polyline stroke-width="2" points="281 82 278 91 275 100 272 108" class="line"/><polyline stroke-width="3" points="272 108 270 116 269 123 267 130" class="line"/><polyline stroke-width="4" points="267 130 267 135" class="line"/><polyline stroke-width="5" points="267 135 266 140" class="line"/><polyline stroke-width="6" points="266 140 267 144" class="line"/><polyline stroke-width="7" points="267 144 268 147 270 149" class="line"/><polyline stroke-width="8" points="270 149 273 150 278 150" class="line"/><polyline stroke-width="7" points="278 150 283 150" class="line"/><polyline stroke-width="6" points="283 150 290 147" class="line"/><polyline stroke-width="5" points="290 147 296 145" class="line"/><polyline stroke-width="4" points="296 145 304 140" class="line"/><polyline stroke-width="3" points="304 140 312 135 319 129" class="line"/><polyline stroke-width="2" points="319 129 327 123 333 117 339 111" class="line"/><polyline stroke-width="3" points="339 111 343 106" class="line"/><polyline stroke-width="4" points="343 106 347 102" class="line"/><polyline stroke-width="5" points="347 102 349 99" class="line"/><polyline stroke-width="6" points="349 99 351 97" class="line"/><polyline stroke-width="8" points="351 97 351 95" class="line"/><polyline stroke-width="9" points="351 95 352 94" class="line"/><polyline stroke-width="10" points="352 94 350 95" class="line"/><polyline stroke-width="9" points="350 95 348 96 344 99" class="line"/><polyline stroke-width="7" points="344 99 341 102" class="line"/><polyline stroke-width="6" points="341 102 337 108" class="line"/><polyline stroke-width="5" points="337 108 333 113 330 119 327 125 326 130 325 135" class="line"/><polyline stroke-width="6" points="325 135 325 139" class="line"/><polyline stroke-width="7" points="325 139 325 143 325 145" class="line"/><polyline stroke-width="8" points="325 145 326 148" class="line"/><polyline stroke-width="9" points="326 148 327 150 329 151 332 152 335 152" class="line"/><polyline stroke-width="8" points="335 152 339 152 343 151 347 149" class="line"/><polyline stroke-width="7" points="347 149 351 147 354 144 357 140 359 136 361 132 362 127 363 123 363 118 363 114 362 110 361 107" class="line"/><polyline stroke-width="8" points="361 107 359 104 357 102 355 101 352 100" class="line"/><polyline stroke-width="9" points="352 100 350 99 347 99 345 99 342 99 341 99 339 100" class="line"/><polyline stroke-width="10" points="339 100 338 101 337 103 338 105 338 107 341 108" class="line"/><polyline stroke-width="9" points="341 108 343 109" class="line"/><polyline stroke-width="8" points="343 109 349 110" class="line"/><polyline stroke-width="7" points="349 110 356 111" class="line"/><polyline stroke-width="5" points="356 111 365 110" class="line"/><polyline stroke-width="4" points="365 110 375 109" class="line"/><polyline stroke-width="3" points="375 109 384 108 392 106" class="line"/><polyline stroke-width="4" points="392 106 397 104" class="line"/><polyline stroke-width="6" points="397 104 400 104" class="line"/><polyline stroke-width="7" points="400 104 397 104" class="line"/><polyline stroke-width="6" points="397 104 397 104" class="line"/></svg>